<svg xmlns="http://www.w3.org/2000/svg" xmlns:xlink="http://www.w3.org/1999/xlink" viewBox="0 0 410.32 301.09"><defs><style>.cls-1{fill:url(#linear-gradient);}.cls-2{fill:url(#linear-gradient-2);}.cls-3{fill:url(#linear-gradient-3);}.cls-4{fill:url(#linear-gradient-4);}.cls-5{fill:#414042;}</style><linearGradient id="linear-gradient" x1="49.35" y1="255.97" x2="75.39" y2="172.63" gradientUnits="userSpaceOnUse"><stop offset="0.34" stop-color="#f3b02e"/><stop offset="1" stop-color="#e99446"/></linearGradient><linearGradient id="linear-gradient-2" x1="97.85" y1="104.78" x2="143.88" y2="247.17" gradientUnits="userSpaceOnUse"><stop offset="0" stop-color="#f0b036"/><stop offset="0.46" stop-color="#e57553"/><stop offset="1" stop-color="#d04893"/></linearGradient><linearGradient id="linear-gradient-3" x1="211.63" y1="256.49" x2="297.93" y2="141.43" gradientUnits="userSpaceOnUse"><stop offset="0" stop-color="#d04893"/><stop offset="0.49" stop-color="#9f68a1"/><stop offset="0.54" stop-color="#8d6fa6"/><stop offset="0.7" stop-color="#5185b8"/><stop offset="0.83" stop-color="#2596c4"/><stop offset="0.94" stop-color="#0aa0cc"/><stop offset="1" stop-color="#00a4cf"/></linearGradient><linearGradient id="linear-gradient-4" x1="337.04" y1="198.68" x2="402.39" y2="198.68" gradientUnits="userSpaceOnUse"><stop offset="0" stop-color="#00a4cf"/><stop offset="1" stop-color="#bbc95c"/></linearGradient></defs><g id="Layer_4_copy" data-name="Layer 4 copy"><path class="cls-1" d="M43.49,162.58c-13.66,36.49-23.34,63.5-26.3,71.4-3.8,10.21-19.42,67.75-8.63,67.11,16.72-.95,26.5-9.58,46.17-52.3C75.43,203.92,109.15,134.88,122,148.6,114.72,136.34,93.7,117,43.49,162.58Z"/><path class="cls-2" d="M208,224.39C180.2,142.89,142.8,46,116,46c-12,0-22.67,9.75-32,23.7-11.56,17.29-21,41-28.42,60.67-4,10.57-8.06,21.48-12.06,32.17C93.7,117,114.72,136.34,122,148.6a10,10,0,0,1,1.82,2.81c.26.61.51,1.27.75,2,.83,2.68,1.72,5.87,2.67,9.47,1.1,4.11,2.25,8.77,3.51,13.77,0,.06,0,.12,0,.21a.09.09,0,0,1,0,.06c10.1,40.56,25.8,104.13,52.24,100.45,12.45-1.76,23-15.34,32.39-34.72A147.72,147.72,0,0,1,208,224.39Z"/><path class="cls-3" d="M337,140c-10.13,10.32-20.6,31.33-32.19,63.35-21.91,60.55-61.53,96.16-89.38,39.35,27.67-56.93,45.94-164.06,76-169.78C317.07,68,328,98.84,337,140Z"/><path class="cls-4" d="M396,275.21c-19.2,12.46-37.41-30.69-49.85-91.1-3.14-15.24-6-30.29-9.07-44.16,7-18.82,18.3-26.43,29.19-13.55C387.32,151.32,415.13,262.73,396,275.21Z"/><path class="cls-5" d="M12.79,274.16a16.63,16.63,0,0,1-6.45-1.33c-15.18-6.35.7-54,8.24-74.25,1.73-4.63,5-14.29,9.1-26.52C31.59,148.58,42.42,116.42,53,88.12,70.23,42.35,90.09,0,118.84,0,146,0,174.33,70,211.36,169l4.92,13.14q1.13,3,2.29,5.79c7.78-18.53,14.93-40.75,21.88-62.35C256.74,74.9,270.81,31.17,293.25,27a24.82,24.82,0,0,1,4.58-.44c18.37,0,30,21.17,37.61,42.08,5-9.63,11-16.7,18.92-16.7,4.87,0,9.43,2.59,13.94,7.92,20.36,24.08,46.62,128.68,41.33,164.61-1.14,7.7-3.64,12.71-7.66,15.33a17.9,17.9,0,0,1-9.81,3.08h0c-19,0-35.42-32.92-48.82-97.84-2.56-12.38-5.75-27.25-9.4-41.53-2.15,6.27-4.39,13.09-6.8,20.42-4.12,12.54-8.8,26.74-14,41.09-16.43,45.35-38.7,71.35-61.1,71.35-12.27,0-23.38-7.58-33.13-22.59-10.14,18.11-20.5,27.41-32.16,29a23.82,23.82,0,0,1-3.11.22h0c-23.88,0-33.48-37-42.76-72.86-4.76-18.38-9.26-35.74-14.91-44.6-2.17-3.41-3.71-3.41-4.22-3.41-13.46,0-40.16,52.76-56.1,84.28-2,3.93-3.93,7.76-5.81,11.45C39.15,258.38,26,274.16,12.79,274.16Zm-1.22-11.67a4.76,4.76,0,0,0,1.22.16c7.47,0,19.86-16.83,36.81-50,1.87-3.67,3.81-7.49,5.79-11.41,26.84-53,47.31-90.59,66.37-90.59,3.81,0,9.33,1.52,13.93,8.73C142.31,129.75,147,148,152,167.25c7.41,28.62,16.64,64.24,31.62,64.24a11.19,11.19,0,0,0,1.51-.11c8.74-1.22,17.83-11.16,27.05-29.57-2.32-4.74-4.57-10-6.7-15.68L200.58,173C178,112.59,140.14,11.51,118.84,11.51c-24.74,0-46,56.52-55,80.65-10.56,28.12-21.36,60.17-29.24,83.57-4.15,12.33-7.43,22.07-9.22,26.87C17.05,224.89,9.3,255.8,11.57,262.49ZM340.75,84.84c5.57,18.79,10.32,40.69,13.86,57.83,14.44,70,30.4,88.66,37.55,88.66a6.5,6.5,0,0,0,3.53-1.22s1.63-1.13,2.55-7.36c5.13-34.77-22-135.73-38.72-155.5-3-3.56-4.71-3.84-5.16-3.84C353.18,63.41,348.77,65,340.75,84.84ZM225.08,201.62c6.13,11.12,15.45,23.21,27,23.21,16.76,0,36-24.44,50.27-63.77,5.15-14.18,9.79-28.31,13.89-40.77,4.53-13.77,8.47-25.76,12.37-35.93C319.05,53.61,308.71,38,297.83,38a13,13,0,0,0-2.45.24c-15.71,2.95-30.73,49.61-44,90.78C243.19,154.56,234.71,180.91,225.08,201.62Z"/></g></svg>